<svg width="399" height="96" viewBox="0 0 399 96" fill="none" xmlns="http://www.w3.org/2000/svg">
<path d="M145.481 19.66V52H138.18V32.9635L138.498 27.549L137.248 33.7475L131.81 49.403H124.631L119.217 33.7475L117.992 27.549L118.31 32.9635V52H110.985V19.66H121.275L127.792 41.2445L128.233 43.817L128.674 41.2445L135.191 19.66H145.481ZM165.311 19.66H172.587L185.352 52H177.536L175.184 45.5075H162.738L160.362 52H152.522L165.311 19.66ZM165.188 39.0885H172.759L169.01 28.48H168.937L165.188 39.0885ZM198.224 26.373L198.763 26.471V52H191.438V19.66H201.434L214.541 45.14L214.002 45.238V19.66H221.328V52H211.283L198.224 26.373ZM249.041 19.66H256.367V39.5295C256.367 42.1918 255.844 44.503 254.799 46.463C253.754 48.4067 252.259 49.9175 250.315 50.9955C248.372 52.0572 246.052 52.588 243.357 52.588C240.646 52.588 238.31 52.0572 236.35 50.9955C234.39 49.9175 232.888 48.4067 231.842 46.463C230.813 44.503 230.299 42.1918 230.299 39.5295V19.66H237.6V39.1375C237.6 40.6075 237.829 41.8488 238.286 42.8615C238.76 43.8742 239.429 44.6418 240.295 45.1645C241.161 45.6708 242.181 45.924 243.357 45.924C244.517 45.924 245.522 45.6708 246.371 45.1645C247.22 44.6418 247.874 43.8742 248.331 42.8615C248.805 41.8488 249.041 40.6075 249.041 39.1375V19.66ZM299.988 38.9905H288.816V52H281.515V19.66H288.816V32.596H299.988V19.66H307.264V52H299.988V38.9905ZM316.31 19.66H336.963V26.079H323.611V32.6695H336.841V38.8925H323.611V45.581H336.963V52H316.31V19.66ZM346.181 19.66H353.506V45.581H365.242V52H346.181V19.66ZM373.555 19.66H385.315C387.389 19.66 389.26 20.0275 390.926 20.7625C392.592 21.4812 393.915 22.5837 394.895 24.07C395.891 25.54 396.389 27.3857 396.389 29.607C396.389 31.812 395.891 33.6903 394.895 35.242C393.915 36.7773 392.592 37.9533 390.926 38.77C389.26 39.5703 387.389 39.9705 385.315 39.9705H380.881V52H373.555V19.66ZM380.881 34.1885H383.282C384.278 34.1885 385.168 34.0415 385.952 33.7475C386.752 33.4535 387.389 32.988 387.863 32.351C388.337 31.6977 388.574 30.8402 388.574 29.7785C388.574 28.7005 388.337 27.8512 387.863 27.2305C387.389 26.5935 386.752 26.1362 385.952 25.8585C385.168 25.5808 384.278 25.442 383.282 25.442H380.881V34.1885Z" fill="#575757"/>
<path d="M116.381 67.6984H122.438V68.4544C122.438 69.3064 122.294 70.1014 122.006 70.8394C121.724 71.5774 121.319 72.2254 120.791 72.7834C120.263 73.3414 119.633 73.7764 118.901 74.0884C118.169 74.4004 117.359 74.5564 116.471 74.5564C115.553 74.5564 114.719 74.4004 113.969 74.0884C113.225 73.7704 112.583 73.3294 112.043 72.7654C111.503 72.2014 111.089 71.5474 110.801 70.8034C110.513 70.0534 110.369 69.2494 110.369 68.3914C110.369 67.5394 110.513 66.7414 110.801 65.9974C111.089 65.2474 111.503 64.5934 112.043 64.0354C112.583 63.4714 113.225 63.0334 113.969 62.7214C114.719 62.4034 115.553 62.2444 116.471 62.2444C117.221 62.2444 117.881 62.3254 118.451 62.4874C119.027 62.6494 119.522 62.8654 119.936 63.1354C120.35 63.4054 120.701 63.7024 120.989 64.0264C121.277 64.3444 121.517 64.6564 121.709 64.9624L119.153 66.1684C118.907 65.7904 118.571 65.4604 118.145 65.1784C117.725 64.8964 117.167 64.7554 116.471 64.7554C115.985 64.7554 115.538 64.8514 115.13 65.0434C114.728 65.2354 114.38 65.4994 114.086 65.8354C113.792 66.1654 113.564 66.5524 113.402 66.9964C113.246 67.4344 113.168 67.8994 113.168 68.3914C113.168 68.8894 113.246 69.3574 113.402 69.7954C113.564 70.2334 113.792 70.6204 114.086 70.9564C114.38 71.2924 114.728 71.5564 115.13 71.7484C115.538 71.9344 115.985 72.0274 116.471 72.0274C116.897 72.0274 117.284 71.9734 117.632 71.8654C117.98 71.7574 118.28 71.6014 118.532 71.3974C118.79 71.1934 118.991 70.9534 119.135 70.6774C119.285 70.3954 119.375 70.0864 119.405 69.7504H116.381V67.6984ZM127.583 62.4604H135.17V64.8184H130.265V67.2394H135.125V69.5254H130.265V71.9824H135.17V74.3404H127.583V62.4604ZM145.128 62.2444C145.866 62.2444 146.511 62.3254 147.063 62.4874C147.615 62.6494 148.059 62.8204 148.395 63.0004C148.731 63.1804 148.935 63.3004 149.007 63.3604L147.711 65.5294C147.615 65.4574 147.45 65.3524 147.216 65.2144C146.988 65.0764 146.715 64.9534 146.397 64.8454C146.085 64.7374 145.758 64.6834 145.416 64.6834C144.954 64.6834 144.579 64.7674 144.291 64.9354C144.009 65.0974 143.868 65.3404 143.868 65.6644C143.868 65.8864 143.943 66.0874 144.093 66.2674C144.249 66.4414 144.483 66.6094 144.795 66.7714C145.113 66.9274 145.515 67.0984 146.001 67.2844C146.445 67.4464 146.862 67.6384 147.252 67.8604C147.642 68.0824 147.984 68.3464 148.278 68.6524C148.578 68.9524 148.815 69.3004 148.989 69.6964C149.163 70.0924 149.25 70.5424 149.25 71.0464C149.25 71.6464 149.127 72.1684 148.881 72.6124C148.635 73.0504 148.299 73.4134 147.873 73.7014C147.453 73.9894 146.973 74.2024 146.433 74.3404C145.899 74.4844 145.344 74.5564 144.768 74.5564C143.952 74.5564 143.22 74.4634 142.572 74.2774C141.93 74.0914 141.411 73.8904 141.015 73.6744C140.619 73.4584 140.382 73.3144 140.304 73.2424L141.645 70.9834C141.717 71.0374 141.855 71.1244 142.059 71.2444C142.269 71.3644 142.524 71.4904 142.824 71.6224C143.124 71.7484 143.442 71.8564 143.778 71.9464C144.12 72.0364 144.456 72.0814 144.786 72.0814C145.338 72.0814 145.752 71.9764 146.028 71.7664C146.304 71.5504 146.442 71.2684 146.442 70.9204C146.442 70.6624 146.355 70.4314 146.181 70.2274C146.007 70.0234 145.746 69.8314 145.398 69.6514C145.05 69.4654 144.615 69.2704 144.093 69.0664C143.571 68.8564 143.082 68.6014 142.626 68.3014C142.176 68.0014 141.81 67.6264 141.528 67.1764C141.246 66.7264 141.105 66.1684 141.105 65.5024C141.105 64.8364 141.291 64.2604 141.663 63.7744C142.041 63.2824 142.536 62.9044 143.148 62.6404C143.766 62.3764 144.426 62.2444 145.128 62.2444ZM156.685 64.8184H153.85V62.4604H162.202V64.8184H159.376V74.3404H156.685V64.8184ZM171.099 62.4604H173.772L178.461 74.3404H175.59L174.726 71.9554H170.154L169.281 74.3404H166.401L171.099 62.4604ZM171.054 69.5974H173.835L172.458 65.7004H172.431L171.054 69.5974ZM169.11 61.6594C169.164 61.3054 169.272 60.9394 169.434 60.5614C169.602 60.1834 169.821 59.8624 170.091 59.5984C170.361 59.3344 170.688 59.2024 171.072 59.2024C171.45 59.2024 171.783 59.2594 172.071 59.3734C172.359 59.4814 172.626 59.5924 172.872 59.7064C173.124 59.8144 173.385 59.8684 173.655 59.8684C173.829 59.8684 173.97 59.7934 174.078 59.6434C174.192 59.4874 174.267 59.3404 174.303 59.2024H175.761C175.701 59.5504 175.59 59.9164 175.428 60.3004C175.266 60.6784 175.05 60.9994 174.78 61.2634C174.51 61.5274 174.183 61.6594 173.799 61.6594C173.421 61.6594 173.088 61.6054 172.8 61.4974C172.512 61.3834 172.242 61.2724 171.99 61.1644C171.738 61.0504 171.477 60.9934 171.207 60.9934C171.039 60.9934 170.898 61.0684 170.784 61.2184C170.676 61.3684 170.601 61.5154 170.559 61.6594H169.11ZM185.432 68.3914C185.432 69.0694 185.57 69.6844 185.846 70.2364C186.128 70.7824 186.515 71.2174 187.007 71.5414C187.505 71.8654 188.081 72.0274 188.735 72.0274C189.389 72.0274 189.962 71.8654 190.454 71.5414C190.952 71.2174 191.339 70.7824 191.615 70.2364C191.897 69.6844 192.038 69.0694 192.038 68.3914C192.038 67.7134 191.897 67.1014 191.615 66.5554C191.339 66.0094 190.952 65.5744 190.454 65.2504C189.962 64.9204 189.389 64.7554 188.735 64.7554C188.081 64.7554 187.505 64.9204 187.007 65.2504C186.515 65.5744 186.128 66.0094 185.846 66.5554C185.57 67.1014 185.432 67.7134 185.432 68.3914ZM182.633 68.3914C182.633 67.5274 182.786 66.7234 183.092 65.9794C183.398 65.2294 183.827 64.5754 184.379 64.0174C184.931 63.4594 185.579 63.0244 186.323 62.7124C187.067 62.4004 187.871 62.2444 188.735 62.2444C189.611 62.2444 190.418 62.4004 191.156 62.7124C191.9 63.0244 192.545 63.4594 193.091 64.0174C193.643 64.5754 194.069 65.2294 194.369 65.9794C194.675 66.7234 194.828 67.5274 194.828 68.3914C194.828 69.2614 194.681 70.0714 194.387 70.8214C194.093 71.5654 193.673 72.2194 193.127 72.7834C192.581 73.3414 191.936 73.7764 191.192 74.0884C190.448 74.4004 189.629 74.5564 188.735 74.5564C187.823 74.5564 186.992 74.4004 186.242 74.0884C185.498 73.7764 184.856 73.3414 184.316 72.7834C183.776 72.2194 183.359 71.5654 183.065 70.8214C182.777 70.0714 182.633 69.2614 182.633 68.3914ZM208.361 62.4604H211.934C213.2 62.4604 214.247 62.7154 215.075 63.2254C215.909 63.7294 216.533 64.4284 216.947 65.3224C217.361 66.2164 217.568 67.2394 217.568 68.3914C217.568 69.5494 217.361 70.5754 216.947 71.4694C216.533 72.3634 215.909 73.0654 215.075 73.5754C214.247 74.0854 213.2 74.3404 211.934 74.3404H208.361V62.4604ZM211.043 64.8454V71.9554H211.691C212.369 71.9554 212.93 71.8024 213.374 71.4964C213.818 71.1844 214.151 70.7614 214.373 70.2274C214.601 69.6874 214.715 69.0814 214.715 68.4094C214.715 67.7314 214.604 67.1254 214.382 66.5914C214.166 66.0514 213.833 65.6254 213.383 65.3134C212.933 65.0014 212.369 64.8454 211.691 64.8454H211.043ZM222.744 62.4604H230.331V64.8184H225.426V67.2394H230.286V69.5254H225.426V71.9824H230.331V74.3404H222.744V62.4604ZM256.977 62.4604V74.3404H254.295V67.3474L254.412 65.3584L253.953 67.6354L251.955 73.3864H249.318L247.329 67.6354L246.879 65.3584L246.996 67.3474V74.3404H244.305V62.4604H248.085L250.479 70.3894L250.641 71.3344L250.803 70.3894L253.197 62.4604H256.977ZM266.576 62.4604H269.249L273.938 74.3404H271.067L270.203 71.9554H265.631L264.758 74.3404H261.878L266.576 62.4604ZM266.531 69.5974H269.312L267.935 65.7004H267.908L266.531 69.5974ZM280.981 64.9264L281.179 64.9624V74.3404H278.488V62.4604H282.16L286.975 71.8204L286.777 71.8564V62.4604H289.468V74.3404H285.778L280.981 64.9264ZM301.963 62.4604H304.654V69.7594C304.654 70.7374 304.462 71.5864 304.078 72.3064C303.694 73.0204 303.145 73.5754 302.431 73.9714C301.717 74.3614 300.865 74.5564 299.875 74.5564C298.879 74.5564 298.021 74.3614 297.301 73.9714C296.581 73.5754 296.029 73.0204 295.645 72.3064C295.267 71.5864 295.078 70.7374 295.078 69.7594V62.4604H297.76V69.6154C297.76 70.1554 297.844 70.6114 298.012 70.9834C298.186 71.3554 298.432 71.6374 298.75 71.8294C299.068 72.0154 299.443 72.1084 299.875 72.1084C300.301 72.1084 300.67 72.0154 300.982 71.8294C301.294 71.6374 301.534 71.3554 301.702 70.9834C301.876 70.6114 301.963 70.1554 301.963 69.6154V62.4604ZM312.371 64.8184H309.536V62.4604H317.888V64.8184H315.062V74.3404H312.371V64.8184ZM322.933 62.4604H330.52V64.8184H325.615V67.2394H330.475V69.5254H325.615V71.9824H330.52V74.3404H322.933V62.4604ZM338.641 64.9264L338.839 64.9624V74.3404H336.148V62.4604H339.82L344.635 71.8204L344.437 71.8564V62.4604H347.128V74.3404H343.438L338.641 64.9264ZM359.047 71.8924C359.599 71.8924 360.1 71.8114 360.55 71.6494C361.006 71.4874 361.345 71.3284 361.567 71.1724L362.719 73.4584C362.437 73.6984 361.954 73.9414 361.27 74.1874C360.592 74.4334 359.785 74.5564 358.849 74.5564C357.973 74.5564 357.151 74.4034 356.383 74.0974C355.615 73.7914 354.937 73.3624 354.349 72.8104C353.767 72.2524 353.308 71.6014 352.972 70.8574C352.642 70.1074 352.477 69.2944 352.477 68.4184C352.477 67.5424 352.642 66.7294 352.972 65.9794C353.302 65.2234 353.758 64.5664 354.34 64.0084C354.928 63.4504 355.606 63.0184 356.374 62.7124C357.148 62.4004 357.973 62.2444 358.849 62.2444C359.785 62.2444 360.592 62.3674 361.27 62.6134C361.954 62.8594 362.437 63.1024 362.719 63.3424L361.567 65.6284C361.345 65.4664 361.006 65.3074 360.55 65.1514C360.1 64.9894 359.599 64.9084 359.047 64.9084C358.435 64.9084 357.901 65.0044 357.445 65.1964C356.989 65.3824 356.608 65.6404 356.302 65.9704C355.996 66.3004 355.768 66.6724 355.618 67.0864C355.468 67.5004 355.393 67.9354 355.393 68.3914C355.393 68.8534 355.468 69.2944 355.618 69.7144C355.768 70.1284 355.996 70.5004 356.302 70.8304C356.608 71.1604 356.989 71.4214 357.445 71.6134C357.901 71.7994 358.435 71.8924 359.047 71.8924ZM358.957 78.2374C358.387 78.2374 357.904 78.1504 357.508 77.9764C357.118 77.8024 356.848 77.6344 356.698 77.4724L357.598 76.4554C357.706 76.5754 357.862 76.6984 358.066 76.8244C358.276 76.9504 358.498 77.0134 358.732 77.0134C358.948 77.0134 359.119 76.9624 359.245 76.8604C359.377 76.7584 359.443 76.6234 359.443 76.4554C359.443 76.2514 359.362 76.1014 359.2 76.0054C359.038 75.9094 358.846 75.8614 358.624 75.8614C358.438 75.8614 358.279 75.8734 358.147 75.8974C358.021 75.9274 357.937 75.9574 357.895 75.9874L357.76 75.8794L358.453 73.9624L359.407 74.2864L359.083 75.0964C359.419 75.0724 359.737 75.1114 360.037 75.2134C360.337 75.3154 360.58 75.4714 360.766 75.6814C360.958 75.8914 361.054 76.1524 361.054 76.4644C361.054 76.8364 360.958 77.1544 360.766 77.4184C360.574 77.6824 360.316 77.8834 359.992 78.0214C359.674 78.1654 359.329 78.2374 358.957 78.2374ZM371.809 62.4604H374.482L379.171 74.3404H376.3L375.436 71.9554H370.864L369.991 74.3404H367.111L371.809 62.4604ZM371.764 69.5974H374.545L373.168 65.7004H373.141L371.764 69.5974ZM369.82 61.6594C369.874 61.3054 369.982 60.9394 370.144 60.5614C370.312 60.1834 370.531 59.8624 370.801 59.5984C371.071 59.3344 371.398 59.2024 371.782 59.2024C372.16 59.2024 372.493 59.2594 372.781 59.3734C373.069 59.4814 373.336 59.5924 373.582 59.7064C373.834 59.8144 374.095 59.8684 374.365 59.8684C374.539 59.8684 374.68 59.7934 374.788 59.6434C374.902 59.4874 374.977 59.3404 375.013 59.2024H376.471C376.411 59.5504 376.3 59.9164 376.138 60.3004C375.976 60.6784 375.76 60.9994 375.49 61.2634C375.22 61.5274 374.893 61.6594 374.509 61.6594C374.131 61.6594 373.798 61.6054 373.51 61.4974C373.222 61.3834 372.952 61.2724 372.7 61.1644C372.448 61.0504 372.187 60.9934 371.917 60.9934C371.749 60.9934 371.608 61.0684 371.494 61.2184C371.386 61.3684 371.311 61.5154 371.269 61.6594H369.82ZM386.142 68.3914C386.142 69.0694 386.28 69.6844 386.556 70.2364C386.838 70.7824 387.225 71.2174 387.717 71.5414C388.215 71.8654 388.791 72.0274 389.445 72.0274C390.099 72.0274 390.672 71.8654 391.164 71.5414C391.662 71.2174 392.049 70.7824 392.325 70.2364C392.607 69.6844 392.748 69.0694 392.748 68.3914C392.748 67.7134 392.607 67.1014 392.325 66.5554C392.049 66.0094 391.662 65.5744 391.164 65.2504C390.672 64.9204 390.099 64.7554 389.445 64.7554C388.791 64.7554 388.215 64.9204 387.717 65.2504C387.225 65.5744 386.838 66.0094 386.556 66.5554C386.28 67.1014 386.142 67.7134 386.142 68.3914ZM383.343 68.3914C383.343 67.5274 383.496 66.7234 383.802 65.9794C384.108 65.2294 384.537 64.5754 385.089 64.0174C385.641 63.4594 386.289 63.0244 387.033 62.7124C387.777 62.4004 388.581 62.2444 389.445 62.2444C390.321 62.2444 391.128 62.4004 391.866 62.7124C392.61 63.0244 393.255 63.4594 393.801 64.0174C394.353 64.5754 394.779 65.2294 395.079 65.9794C395.385 66.7234 395.538 67.5274 395.538 68.3914C395.538 69.2614 395.391 70.0714 395.097 70.8214C394.803 71.5654 394.383 72.2194 393.837 72.7834C393.291 73.3414 392.646 73.7764 391.902 74.0884C391.158 74.4004 390.339 74.5564 389.445 74.5564C388.533 74.5564 387.702 74.4004 386.952 74.0884C386.208 73.7764 385.566 73.3414 385.026 72.7834C384.486 72.2194 384.069 71.5654 383.775 70.8214C383.487 70.0714 383.343 69.2614 383.343 68.3914Z" fill="#575757"/>
<circle cx="48" cy="48" r="48" fill="#FFDE59"/>
<path d="M68 61.1364L58.1751 46.0682L48.7723 31.6473C48.5742 31.3435 48.136 31.3337 47.9401 31.6388C45.7962 34.9777 35.7219 50.6676 29 61.1364" stroke="#565454" stroke-width="4.3"/>
<circle cx="48" cy="48" r="39.75" stroke="#555552" stroke-width="4.5"/>
</svg>
