<?xml version="1.0" standalone="no"?>
<!DOCTYPE svg PUBLIC "-//W3C//DTD SVG 20010904//EN"
 "http://www.w3.org/TR/2001/REC-SVG-20010904/DTD/svg10.dtd">
<svg version="1.0" xmlns="http://www.w3.org/2000/svg"
 width="144.000000pt" height="144.000000pt" viewBox="0 0 144.000000 144.000000"
 preserveAspectRatio="xMidYMid meet">

<g transform="translate(0.000000,144.000000) scale(0.100000,-0.100000)"
fill="#000000" stroke="none">
<path d="M421 818 c0 -43 2 -78 7 -78 4 0 6 24 4 52 -5 95 -9 104 -11 26z"/>
<path d="M483 830 c0 -36 2 -50 4 -32 2 17 2 47 0 65 -2 17 -4 3 -4 -33z"/>
<path d="M323 843 c9 -2 25 -2 35 0 9 3 1 5 -18 5 -19 0 -27 -2 -17 -5z"/>
<path d="M1110 810 c0 -14 -7 -20 -22 -21 l-23 0 23 -9 c12 -6 22 -18 22 -30
0 -27 18 -26 22 3 2 14 9 21 21 21 9 -1 17 2 17 7 0 5 -9 9 -20 9 -13 0 -20 7
-20 20 0 11 -4 20 -10 20 -5 0 -10 -9 -10 -20z"/>
<path d="M550 800 c-30 -56 13 -124 63 -98 13 7 17 4 17 -12 0 -25 -25 -37
-45 -20 -8 6 -22 10 -31 8 -17 -3 -17 -4 0 -20 20 -21 79 -24 94 -5 6 6 12 46
14 88 l3 76 -52 1 c-42 1 -55 -2 -63 -18z m75 -40 c0 -28 -4 -36 -22 -38 -14
-2 -23 3 -28 17 -10 34 4 63 28 59 18 -2 22 -10 22 -38z"/>
<path d="M700 754 c0 -49 3 -64 14 -64 11 0 16 15 18 53 3 44 6 52 23 52 17 0
20 -8 23 -52 2 -37 7 -53 17 -53 10 0 15 16 17 53 3 44 6 52 23 52 17 0 20 -8
23 -52 2 -38 7 -53 18 -53 10 0 14 13 14 53 0 28 -4 57 -8 63 -4 8 -39 12 -94
12 l-88 0 0 -64z"/>
<path d="M930 729 c0 -72 3 -89 15 -89 10 0 15 10 15 30 0 28 2 30 25 24 50
-13 84 53 55 106 -8 16 -21 19 -60 19 l-50 -2 0 -88z m78 59 c18 -18 14 -56
-6 -67 -24 -13 -42 4 -42 39 0 40 23 53 48 28z"/>
<path d="M300 766 c0 -2 8 -10 18 -17 15 -13 16 -12 3 4 -13 16 -21 21 -21 13z"/>
<path d="M360 731 c0 -6 4 -13 10 -16 6 -3 7 1 4 9 -7 18 -14 21 -14 7z"/>
</g>
</svg>
