<svg width="1043" height="794" viewBox="0 0 1043 794" fill="none" xmlns="http://www.w3.org/2000/svg">
<path d="M321.209 796.275H317.863C317.863 754.658 301.295 714.745 271.803 685.317C242.311 655.89 202.312 639.357 160.605 639.357C118.897 639.357 78.8976 655.89 49.4059 685.317C19.9142 714.745 3.34593 754.658 3.34593 796.275H0C6.34714e-07 753.773 16.9208 713.011 47.04 682.957C77.1591 652.903 118.01 636.019 160.605 636.019C203.199 636.019 244.05 652.903 274.169 682.957C304.288 713.011 321.209 753.773 321.209 796.275Z" fill="#E3C64F"/>
<path d="M1092.45 413.996H1089.1C1089.1 255.674 960.015 126.87 801.35 126.87C642.684 126.87 513.6 255.674 513.6 413.996H510.254C510.254 253.833 640.84 123.531 801.35 123.531C961.861 123.531 1092.45 253.833 1092.45 413.996Z" fill="#E3C64F"/>
<path d="M243.417 131.878C279.913 131.878 309.499 102.356 309.499 65.939C309.499 29.5219 279.913 0 243.417 0C206.92 0 177.334 29.5219 177.334 65.939C177.334 102.356 206.92 131.878 243.417 131.878Z" fill="#FF6584"/>
<path d="M257.454 519.806L370.983 384.895H594.188L730.591 517.467L727.836 519.235H728.82V794.985H257.609V519.235L257.454 519.806Z" fill="#3F3D56"/>
<path d="M325.758 461.153H351.493V372.263H325.758V461.153Z" fill="#3F3D56"/>
<path d="M369.213 383.127L509.158 546.844V794.985H257.609V515.699L369.213 383.127Z" fill="#97D5D8"/>
<path d="M476.818 579.335H425.446V631.75H476.818V579.335Z" fill="#3F3D56"/>
<path d="M476.818 650.653H425.446V703.068H476.818V650.653Z" fill="#3F3D56"/>
<path d="M476.818 579.335H425.446V631.75H476.818V579.335Z" fill="white"/>
<path d="M476.818 650.653H425.446V703.068H476.818V650.653Z" fill="white"/>
<path d="M405.77 579.335H354.397V631.75H405.77V579.335Z" fill="#3F3D56"/>
<path d="M405.77 650.653H354.397V703.068H405.77V650.653Z" fill="#3F3D56"/>
<path d="M405.77 579.335H354.397V631.75H405.77V579.335Z" fill="white"/>
<path d="M405.77 650.653H354.397V703.068H405.77V650.653Z" fill="white"/>
<path d="M334.722 579.335H283.349V631.75H334.722V579.335Z" fill="#3F3D56"/>
<path d="M334.722 650.653H283.349V703.068H334.722V650.653Z" fill="#3F3D56"/>
<path d="M334.722 579.335H283.349V631.75H334.722V579.335Z" fill="white"/>
<path d="M334.722 650.653H283.349V703.068H334.722V650.653Z" fill="white"/>
<path d="M834.809 66.7744H811.388V125.201H834.809V66.7744Z" fill="#97D5D8"/>
<path d="M833.135 120.192H634.053V796.275H833.135V120.192Z" fill="#97D5D8"/>
<path d="M913.438 120.192H833.136V796.275H913.438V120.192Z" fill="#3F3D56"/>
<path d="M700.136 178.619H670.022V208.667H700.136V178.619Z" fill="white"/>
<path d="M748.652 178.619H718.538V208.667H748.652V178.619Z" fill="white"/>
<path d="M797.167 178.619H767.054V208.667H797.167V178.619Z" fill="white"/>
<path d="M700.972 247.062H670.858V277.111H700.972V247.062Z" fill="white"/>
<path d="M749.488 247.062H719.375V277.111H749.488V247.062Z" fill="white"/>
<path d="M798.004 247.062H767.891V277.111H798.004V247.062Z" fill="white"/>
<path d="M701.809 315.505H671.695V345.553H701.809V315.505Z" fill="white"/>
<path d="M750.325 315.505H720.211V345.553H750.325V315.505Z" fill="white"/>
<path d="M798.841 315.505H768.727V345.553H798.841V315.505Z" fill="white"/>
<path d="M702.643 383.949H672.53V413.997H702.643V383.949Z" fill="white"/>
<path d="M751.161 383.949H721.048V413.997H751.161V383.949Z" fill="white"/>
<path d="M799.677 383.949H769.564V413.997H799.677V383.949Z" fill="white"/>
<path d="M703.482 452.392H673.368V482.44H703.482V452.392Z" fill="white"/>
<path d="M751.997 452.392H721.884V482.44H751.997V452.392Z" fill="white"/>
<path d="M800.514 452.392H770.4V482.44H800.514V452.392Z" fill="white"/>
<path d="M704.317 520.835H674.204V550.883H704.317V520.835Z" fill="white"/>
<path d="M752.834 520.835H722.721V550.883H752.834V520.835Z" fill="white"/>
<path d="M801.35 520.835H771.237V550.883H801.35V520.835Z" fill="white"/>
<path d="M705.153 589.278H675.04V619.326H705.153V589.278Z" fill="white"/>
<path d="M753.67 589.278H723.557V619.326H753.67V589.278Z" fill="white"/>
<path d="M802.187 589.278H772.073V619.326H802.187V589.278Z" fill="white"/>
<path d="M705.99 657.721H675.876V687.769H705.99V657.721Z" fill="white"/>
<path d="M754.507 657.721H724.394V687.769H754.507V657.721Z" fill="white"/>
<path d="M754.507 737.849H724.394V794.606H754.507V737.849Z" fill="white"/>
<path d="M803.023 657.721H772.91V687.769H803.023V657.721Z" fill="white"/>
<path d="M846.52 66.7744H833.136V123.532H846.52V66.7744Z" fill="#3F3D56"/>
<path d="M1084.08 395.577H884.998V796.277H1084.08V395.577Z" fill="#97D5D8"/>
<path d="M954.425 452.392H924.312V482.44H954.425V452.392Z" fill="white"/>
<path d="M1002.94 452.392H972.828V482.44H1002.94V452.392Z" fill="white"/>
<path d="M1051.46 452.392H1021.34V482.44H1051.46V452.392Z" fill="white"/>
<path d="M955.262 520.835H925.148V550.883H955.262V520.835Z" fill="white"/>
<path d="M1003.78 520.835H973.665V550.883H1003.78V520.835Z" fill="white"/>
<path d="M1052.29 520.835H1022.18V550.883H1052.29V520.835Z" fill="white"/>
<path d="M956.098 589.278H925.985V619.326H956.098V589.278Z" fill="white"/>
<path d="M1004.61 589.278H974.501V619.326H1004.61V589.278Z" fill="white"/>
<path d="M1053.13 589.278H1023.02V619.326H1053.13V589.278Z" fill="white"/>
<path d="M956.935 657.721H926.822V687.769H956.935V657.721Z" fill="white"/>
<path d="M1005.45 657.721H975.338V687.769H1005.45V657.721Z" fill="white"/>
<path d="M1005.45 737.849H975.338V794.606H1005.45V737.849Z" fill="white"/>
<path d="M1053.97 657.721H1023.85V687.769H1053.97V657.721Z" fill="white"/>
<path d="M44.6015 716.283C68.6618 716.283 88.1665 696.821 88.1665 672.812C88.1665 648.804 68.6618 629.342 44.6015 629.342C20.5413 629.342 1.03662 648.804 1.03662 672.812C1.03662 696.821 20.5413 716.283 44.6015 716.283Z" fill="#95D581"/>
<path opacity="0.2" d="M77.008 643.777C81.0715 653.262 81.6228 663.88 78.5631 673.733C75.5035 683.586 69.0324 692.033 60.3062 697.563C51.5799 703.094 41.1671 705.348 30.9285 703.923C20.6899 702.499 11.2927 697.487 4.41602 689.785C6.89838 695.58 10.6137 700.767 15.3045 704.987C19.9954 709.207 25.5496 712.359 31.5824 714.224C37.6152 716.09 43.9823 716.624 50.2426 715.79C56.5028 714.957 62.5066 712.775 67.8379 709.396C73.1692 706.017 77.7005 701.522 81.118 696.222C84.5354 690.922 86.7572 684.944 87.6295 678.702C88.5018 672.461 88.0037 666.104 86.1696 660.074C84.3356 654.043 81.2096 648.482 77.0081 643.777H77.008Z" fill="black"/>
<path d="M44.7198 672.813H44.8403L46.9934 796.059H42.4463L44.7198 672.813Z" fill="#3F3D56"/>
<path d="M52.6525 739.944L51.6489 738.042L44.4475 741.825L45.4511 743.727L52.6525 739.944Z" fill="#3F3D56"/>
<path d="M1014.51 62.3259L1029.91 50.0349C1017.94 48.7178 1013.03 55.2287 1011.02 60.3821C1001.67 56.5092 991.495 61.5848 991.495 61.5848L1022.31 72.7472C1020.75 68.6041 1018.05 64.989 1014.51 62.3259Z" fill="#3F3D56"/>
<path d="M241.598 124.092L256.999 111.801C245.035 110.484 240.119 116.995 238.107 122.148C228.76 118.275 218.585 123.351 218.585 123.351L249.399 134.513C247.845 130.37 245.139 126.755 241.598 124.092Z" fill="#3F3D56"/>
<path d="M368.744 90.7053L384.145 78.4143C372.181 77.0972 367.265 83.6081 365.253 88.7615C355.906 84.8886 345.731 89.9642 345.731 89.9642L376.545 101.127C374.991 96.9835 372.284 93.3684 368.744 90.7053Z" fill="#3F3D56"/>
<path d="M397.183 224.252L412.584 211.961C400.62 210.644 395.704 217.155 393.692 222.308C384.345 218.435 374.17 223.511 374.17 223.511L404.984 234.673C403.43 230.53 400.724 226.915 397.183 224.252Z" fill="#3F3D56"/>
<path d="M996.104 294.364L1011.5 282.073C999.541 280.756 994.625 287.267 992.613 292.421C983.266 288.548 973.091 293.623 973.091 293.623L1003.91 304.786C1002.35 300.643 999.644 297.028 996.104 294.364Z" fill="#3F3D56"/>
<path d="M177.334 761.22H73.6104V764.559H89.7862V796.276H93.1322V764.559H156.139V796.276H159.485V764.559H177.334V761.22Z" fill="#3F3D56"/>
<path d="M282.731 774.575C278.637 774.574 274.615 775.651 271.071 777.696C267.472 774.448 263.005 772.313 258.213 771.549C253.421 770.786 248.51 771.426 244.076 773.394C239.642 775.361 235.876 778.571 233.234 782.633C230.593 786.695 229.19 791.434 229.196 796.277H306.068C305.649 790.385 303.008 784.871 298.678 780.844C294.348 776.818 288.65 774.577 282.731 774.575Z" fill="#3F3D56"/>
<path d="M679.224 774.575C675.13 774.574 671.108 775.651 667.564 777.696C663.965 774.448 659.498 772.313 654.706 771.549C649.914 770.786 645.003 771.426 640.569 773.394C636.135 775.361 632.369 778.571 629.727 782.633C627.086 786.695 625.683 791.434 625.689 796.277H702.561C702.142 790.385 699.501 784.871 695.171 780.844C690.841 776.818 685.143 774.577 679.224 774.575Z" fill="#77AA67"/>
<path d="M938.532 774.575C934.438 774.574 930.416 775.651 926.872 777.696C923.273 774.448 918.806 772.313 914.014 771.549C909.222 770.786 904.311 771.426 899.877 773.394C895.443 775.361 891.677 778.571 889.036 782.633C886.394 786.695 884.991 791.434 884.997 796.277H961.869C961.45 790.385 958.809 784.871 954.479 780.844C950.149 776.818 944.451 774.577 938.532 774.575Z" fill="#77AA67"/>
<path d="M215.812 679.422H189.044V706.132H201.453V796.129H204.799V706.132H215.812V679.422Z" fill="#3F3D56"/>
<path d="M177.538 751.232H73.8145V754.57H177.538V751.232Z" fill="#3F3D56"/>
<path d="M177.538 742.885H73.8145V746.223H177.538V742.885Z" fill="#3F3D56"/>
<path d="M177.538 734.537H73.8145V737.876H177.538V734.537Z" fill="#3F3D56"/>
</svg>
